<?xml version="1.0" encoding="utf-8"?>
<!-- Generator: Adobe Illustrator 22.0.0, SVG Export Plug-In . SVG Version: 6.00 Build 0)  -->
<svg version="1.1" id="Layer_1" xmlns="http://www.w3.org/2000/svg" xmlns:xlink="http://www.w3.org/1999/xlink" x="0px" y="0px"
	 viewBox="0 0 512 512" style="enable-background:new 0 0 512 512;" xml:space="preserve">
<style type="text/css">
	.st0{fill:#272B34;}
	.st1{fill:#EA1E63;}
</style>
<title>PixiJS_logo</title>
<rect class="st0" width="512" height="512"/>
<path class="st1" d="M177.1,222.4c8.2,0,13.5-5.6,13.5-12.5c-0.2-7.3-5.3-12.7-13.4-12.7s-13.4,5.4-13.2,12.7
	C163.9,216.8,169.2,222.4,177.1,222.4z"/>
<path class="st1" d="M276.7,197.2c-8.1,0-13.4,5.4-13.2,12.7c-0.2,6.9,5.1,12.5,13,12.5c8.3,0,13.5-5.6,13.5-12.5
	C289.9,202.6,284.8,197.2,276.7,197.2z"/>
<path class="st1" d="M264.1,232.3h-22.6l-7.1,13c-2.1,4-4.1,8.1-6.3,12.4h-0.3c-2.1-3.8-4.3-7.9-6.6-12l-7.9-13.4h-45.8
	c-0.7-8.8-4.9-16.9-11.7-22.4c-7.4-5.9-18.5-8.9-34-8.9c-15.3,0-26.2,1-34,2.3V313h24.9v-39.8c2.8,0.4,5.7,0.5,8.6,0.5
	c14.9,0,27.6-3.6,36.1-11.7c3.2-3.1,5.7-6.8,7.3-10.9V313h47.4l7.6-14.5c2-4,4.1-7.9,6.1-12.2h0.5c2,4.1,4,8.2,6.3,12.2l8.1,14.5
	h48.5v-80.7H264.1z M121.1,254.4c-2.8,0.1-5.6-0.1-8.4-0.7v-32.8c3.4-0.8,6.9-1.1,10.4-1c12.6,0,19.6,6.1,19.6,16.3
	C142.7,247.7,134.4,254.4,121.1,254.4L121.1,254.4z M189.9,305.2v-66.1l22.2,32.8L189.9,305.2z M242.2,270.8l21.9-31.7v66.2
	L242.2,270.8z"/>
<path class="st1" d="M395.4,247c-14.4-5.4-20.6-8.6-20.6-15.7c0-5.8,5.3-10.7,16.2-10.7c8.1,0,16,1.8,23.3,5.3l5.6-20.3
	c-6.6-3-15.8-5.6-28.4-5.6c-23.1,0-38.1,11.2-41.4,26.9v-25.1h-25.1v70c0,17.3-6.6,22.1-17.2,22.1c-4.4,0-8.7-0.7-12.9-2l-2.8,20.3
	c5.9,1.7,12.1,2.6,18.3,2.6c24.4,0,39.6-11.1,39.6-42.7v-32.3c2.8,12.6,13.9,21,29.9,26.5c13.4,4.8,18.6,8.7,18.6,15.7
	c0,7.3-6.1,12-17.7,12c-9.7-0.2-19.2-2.5-27.9-6.9l-5.1,20.8c6.3,3.5,18.8,6.8,31.5,6.8c30.5,0,44.9-15.8,44.9-34.5
	C424.2,264.5,415,254.3,395.4,247z"/>
</svg>
